<?xml version="1.0" encoding="iso-8859-1"?>
<!-- Uploaded to: SVG Repo, www.svgrepo.com, Generator: SVG Repo Mixer Tools -->
<svg fill="#000000" height="800px" width="800px" version="1.1" id="Capa_1" xmlns="http://www.w3.org/2000/svg" xmlns:xlink="http://www.w3.org/1999/xlink" 
	 viewBox="0 0 487.6 487.6" xml:space="preserve">
<g>
	<g>
		<g>
			<path d="M0,393.2v-21.4h28h1.5V151.2c0-17.4,14.1-31.5,31.5-31.5h114.8v42.9H72.4v209.2h109.8v2.1c0,6.6,5.4,11.9,11.9,11.9h60.3
				c6.6,0,11.9-5.3,11.9-11.9v-2.1h109.9v-87.9h42.9v87.9h1.5h28v21.4c0,19.2-15.6,34.7-34.7,34.7h-33.3H68H34.7
				C15.5,428,0,412.4,0,393.2z M487.6,88.7v134.6c0,16-13,29-29,29H299.9L250.2,302c-0.9,0.9-1.9,1.3-3,1.3c-2.2,0-4.3-1.7-4.3-4.2
				v-46.7h-6.4c-16,0-29-13-29-29V88.7c0-16,13-29,29-29h222.1C474.6,59.6,487.6,72.6,487.6,88.7z M360.4,191.8h-25.6v25.6h25.6
				V191.8z M360.4,144.6h-25.6v25.6h25.6V144.6z M360.4,97.5h-25.6v25.6h25.6V97.5z"/>
		</g>
	</g>
</g>
</svg>